<svg xmlns="http://www.w3.org/2000/svg" width="13.232" height="41.179" viewBox="0 0 13.232 41.179">
  <g id="bg_left" transform="translate(1.5 1.5)" fill="#f2bf8e">
    <path d="M 9.473170280456543 38.10037231445312 L 8.812859535217285 36.87820053100586 C 8.009050369262695 35.39043045043945 6.627089977264404 34.50220108032227 5.116129875183105 34.50220108032227 C 3.833799839019775 34.50220108032227 2.620139837265015 35.15703964233398 1.78633987903595 36.29880905151367 C 1.648289918899536 36.48653030395508 1.52567994594574 36.68014144897461 1.420429944992065 36.87630081176758 L 0.7640898823738098 38.09952926635742 L 0.1007198989391327 36.88010025024414 C -0.4558200836181641 35.85702133178711 -0.7500001192092896 34.68672180175781 -0.7500001192092896 33.49570083618164 L -0.7500001192092896 5.791300773620605 C -0.7500001192092896 2.184410810470581 1.881529927253723 -0.7499991059303284 5.116129875183105 -0.7499991059303284 C 7.975719928741455 -0.7499991059303284 10.40429973602295 1.528500914573669 10.89074993133545 4.667760848999023 C 10.95141983032227 5.054141044616699 10.9822998046875 5.432651042938232 10.9822998046875 5.791300773620605 L 10.9822998046875 33.5 C 10.9822998046875 34.67969131469727 10.68853950500488 35.84773254394531 10.13276958465576 36.8778190612793 L 9.473170280456543 38.10037231445312 Z" stroke="none"/>
    <path d="M 9.472709655761719 36.52170181274414 C 9.94890022277832 35.63909912109375 10.2322998046875 34.60869979858398 10.2322998046875 33.5 L 10.2322998046875 5.791300773620605 C 10.2322998046875 5.447830677032471 10.2007999420166 5.108700752258301 10.1496000289917 4.782610893249512 C 9.728519439697266 2.065220832824707 7.63484001159668 9.063720654012286e-07 5.116129875183105 9.063720654012286e-07 C 2.290449857711792 9.063720654012286e-07 -9.765624753299562e-08 2.595650911331177 -9.765624753299562e-08 5.791300773620605 L -9.765624753299562e-08 33.49570083618164 C -9.765624753299562e-08 34.60869979858398 0.2794198989868164 35.63909912109375 0.7595499157905579 36.52170181274414 C 0.8854799270629883 36.28700256347656 1.027159929275513 36.06520080566406 1.180649876594543 35.85650253295898 C 2.117290019989014 34.57390213012695 3.530129909515381 33.75220108032227 5.116129875183105 33.75220108032227 C 6.961869716644287 33.75220108032227 8.575419425964355 34.86090087890625 9.472709655761719 36.52170181274414 M 9.47361946105957 39.67903900146484 L 8.152999877929688 37.23471069335938 C 7.482319831848145 35.99332046508789 6.347039699554443 35.25220108032227 5.116129875183105 35.25220108032227 C 4.075930118560791 35.25220108032227 3.083029985427856 35.79489135742188 2.392030000686646 36.74113082885742 L 2.389029979705811 36.74521255493164 C 2.273399829864502 36.90243911743164 2.169859886169434 37.06584930419922 2.081309795379639 37.23089981079102 L 0.7686299085617065 39.67737197875977 L -0.5581001043319702 37.23850250244141 C -1.174300074577332 36.10577011108398 -1.50000011920929 34.81153106689453 -1.50000011920929 33.49570083618164 L -1.50000011920929 5.791300773620605 C -1.50000011920929 1.770860910415649 1.467979907989502 -1.499999046325684 5.116129875183105 -1.499999046325684 C 6.7146897315979 -1.499999046325684 8.256919860839844 -0.8640691041946411 9.45872974395752 0.2906409204006195 C 10.60484981536865 1.39185094833374 11.37664031982422 2.905550956726074 11.63191032409668 4.552920818328857 C 11.6983699798584 4.976171016693115 11.7322998046875 5.393820762634277 11.7322998046875 5.791300773620605 L 11.7322998046875 33.5 C 11.7322998046875 34.80361175537109 11.40744018554688 36.09479141235352 10.7928295135498 37.23394012451172 L 9.47361946105957 39.67903900146484 Z" stroke="none" fill="#030303"/>
  </g>
</svg>
