<svg xmlns="http://www.w3.org/2000/svg" width="13.232" height="41.175" viewBox="0 0 13.232 41.175">
  <g id="bg_right" transform="translate(0.732 1.5)" fill="#f2bf8e">
    <path d="M 10.24747848510742 38.09603881835938 L 9.584988594055176 36.87508773803711 C 8.777278900146484 35.38650894165039 7.393619060516357 34.49779891967773 5.883708953857422 34.49779891967773 C 4.373788833618164 34.49779891967773 2.990128993988037 35.38650894165039 2.182408809661865 36.87508773803711 L 1.522938966751099 38.09045791625977 L 0.8638689517974854 36.8748779296875 C 0.3102189302444458 35.85372924804688 0.01757892593741417 34.68523025512695 0.01757892593741417 33.49570083618164 L 0.01757892593741417 5.791299343109131 C 0.01757892593741417 5.432879447937012 0.0474989265203476 5.065399646759033 0.1090489253401756 4.667859554290771 C 0.5955389142036438 1.528499364852905 3.024128913879395 -0.7500005960464478 5.883708953857422 -0.7500005960464478 C 9.118278503417969 -0.7500005960464478 11.74979877471924 2.184409379959106 11.74979877471924 5.791299343109131 L 11.74979877471924 33.49570083618164 C 11.74979877471924 34.34257125854492 11.60179901123047 35.17300796508789 11.3099193572998 35.96395874023438 C 11.19685935974121 36.27642059326172 11.06004905700684 36.58353805541992 10.90488910675049 36.87234115600586 L 10.24747848510742 38.09603881835938 Z" stroke="none"/>
    <path d="M 5.883708953857422 0 C 3.364998817443848 0 1.271319389343262 2.065219879150391 0.8502187728881836 4.782609939575195 C 0.7990589141845703 5.113039016723633 0.7675790786743164 5.447830200195312 0.7675790786743164 5.791299819946289 L 0.7675790786743164 33.49570083618164 C 0.7675790786743164 34.60440063476562 1.046998977661133 35.63909912109375 1.523199081420898 36.51739883422852 C 2.424419403076172 34.85649871826172 4.034029006958008 33.74779891967773 5.883708953857422 33.74779891967773 C 7.733378887176514 33.74779891967773 9.342988967895508 34.85649871826172 10.2441987991333 36.51739883422852 C 10.38199901580811 36.26089859008789 10.50399875640869 35.98699951171875 10.60629844665527 35.70429992675781 C 10.85819911956787 35.02169799804688 10.99979877471924 34.27829742431641 10.99979877471924 33.49570083618164 L 10.99979877471924 5.791299819946289 C 10.99979877471924 2.595649719238281 8.709379196166992 0 5.883708953857422 0 M 5.883708953857422 -1.5 C 9.531828880310059 -1.5 12.49979877471924 1.770858764648438 12.49979877471924 5.791299819946289 L 12.49979877471924 33.49570083618164 C 12.49979877471924 34.43008804321289 12.33668327331543 35.3465576171875 12.01496124267578 36.21975326538086 C 11.88828086853027 36.56906127929688 11.7371187210083 36.90799713134766 11.56557846069336 37.22729110717773 L 10.25076866149902 39.67467880249023 L 8.925779342651367 37.23278045654297 C 8.251358985900879 35.98984909057617 7.114139080047607 35.24779891967773 5.883708953857422 35.24779891967773 C 4.653278827667236 35.24779891967773 3.516049385070801 35.98984909057617 2.841618537902832 37.2327880859375 L 1.522679328918457 39.66350936889648 L 0.2045488357543945 37.23234939575195 C -0.408421516418457 36.10179901123047 -0.7324209213256836 34.8096809387207 -0.7324209213256836 33.49570083618164 L -0.7324209213256836 5.791299819946289 C -0.7324209213256836 5.394039154052734 -0.699610710144043 4.989019393920898 -0.6321210861206055 4.553098678588867 C -0.3768014907836914 2.905540466308594 0.394989013671875 1.391838073730469 1.541109085083008 0.2906379699707031 C 2.742918968200684 -0.8640708923339844 4.285159111022949 -1.5 5.883708953857422 -1.5 Z" stroke="none" fill="#030303"/>
  </g>
</svg>
