<svg width="451" height="590" viewBox="0 0 451 590" fill="none" xmlns="http://www.w3.org/2000/svg">
<circle cx="156" cy="295" r="295" fill="#4D391D"/>
<path d="M150.752 211.885L130.776 48H195.066L171.265 211.885H150.752Z" stroke="#453218" stroke-width="12"/>
<path d="M175.248 372.115L195.224 536H130.934L154.735 372.115H175.248Z" stroke="#453218" stroke-width="12"/>
<path d="M210.989 226.689L312.748 96.6799L358.208 142.14L225.494 241.194L210.989 226.689Z" stroke="#453218" stroke-width="12"/>
<path d="M115.011 357.311L13.2521 487.32L-32.2077 441.86L100.506 342.806L115.011 357.311Z" stroke="#453218" stroke-width="12"/>
<path d="M243.115 279.752L407 259.776L407 324.066L243.115 300.265L243.115 279.752Z" stroke="#453218" stroke-width="12"/>
<path d="M82.8849 304.248L-81 324.224L-81 259.934L82.885 283.735L82.8849 304.248Z" stroke="#453218" stroke-width="12"/>
<path d="M228.311 339.989L358.32 441.748L312.86 487.208L213.806 354.494L228.311 339.989Z" stroke="#453218" stroke-width="12"/>
<path d="M97.6894 244.011L-32.3199 142.252L13.14 96.792L112.194 229.506L97.6894 244.011Z" stroke="#453218" stroke-width="12"/>
<path fill-rule="evenodd" clip-rule="evenodd" d="M256.441 91.685L267.051 38.1166L237.193 83.8405L237.557 83.9885L192.747 216.247L195.671 217.439L256.078 91.5369L256.441 91.685Z" fill="#453218"/>
<path fill-rule="evenodd" clip-rule="evenodd" d="M91.5916 496.159L61.7339 541.883L72.3442 488.315L72.7075 488.463L133.114 362.561L136.038 363.753L91.2283 496.011L91.5916 496.159Z" fill="#453218"/>
<path fill-rule="evenodd" clip-rule="evenodd" d="M368.306 211.128L413.126 179.929L359.895 192.121L360.054 192.48L235.996 256.587L237.274 259.475L368.147 210.769L368.306 211.128Z" fill="#453218"/>
<path fill-rule="evenodd" clip-rule="evenodd" d="M-31.1106 387.879L-84.3414 400.071L-39.5215 368.872L-39.3628 369.231L91.5108 320.525L92.7887 323.413L-31.2694 387.52L-31.1106 387.879Z" fill="#453218"/>
<path fill-rule="evenodd" clip-rule="evenodd" d="M363.759 379.748L417.446 389.738L371.38 360.412L371.236 360.777L238.469 317.499L237.311 320.437L363.902 379.383L363.759 379.748Z" fill="#453218"/>
<path fill-rule="evenodd" clip-rule="evenodd" d="M-42.5954 219.588L-88.6615 190.262L-34.974 200.252L-35.1179 200.617L91.474 259.563L90.3161 262.501L-42.4516 219.223L-42.5954 219.588Z" fill="#453218"/>
<path fill-rule="evenodd" clip-rule="evenodd" d="M235.092 496.889L264.484 542.915L254.419 489.241L254.054 489.385L194.931 362.876L191.995 364.038L235.457 496.745L235.092 496.889Z" fill="#453218"/>
<path fill-rule="evenodd" clip-rule="evenodd" d="M74.3661 90.759L64.3012 37.0854L93.6923 83.1106L93.3275 83.255L136.79 215.962L133.854 217.124L74.7308 90.6146L74.3661 90.759Z" fill="#453218"/>
<circle cx="166" cy="295" r="80.5" stroke="#453218" stroke-width="19"/>
</svg>
