<svg width="30" height="30" viewBox="0 0 30 30" fill="none" xmlns="http://www.w3.org/2000/svg">
<path fill-rule="evenodd" clip-rule="evenodd" d="M15 30C23.2843 30 30 23.2843 30 15C30 6.71573 23.2843 0 15 0C6.71573 0 0 6.71573 0 15C0 23.2843 6.71573 30 15 30ZM17.3882 9.00077C18.6332 9.21667 19.845 9.59282 20.9934 10.1199C20.9984 10.1216 21.0029 10.1244 21.0067 10.128C21.0105 10.1317 21.0135 10.136 21.0155 10.1409C23.0157 13.082 24.0042 16.4005 23.6345 20.2205C23.634 20.2286 23.6316 20.2365 23.6276 20.2436C23.6235 20.2507 23.618 20.2568 23.6113 20.2615C22.2729 21.2531 20.7751 22.0093 19.1825 22.4974C19.1713 22.501 19.1592 22.5008 19.1481 22.4971C19.1369 22.4933 19.1273 22.486 19.1205 22.4764C18.7862 22.0115 18.4818 21.52 18.2161 21.0053C18.2125 20.9984 18.2104 20.9908 18.2098 20.983C18.2092 20.9752 18.2103 20.9673 18.2128 20.9599C18.2156 20.9523 18.22 20.9454 18.2257 20.9396C18.2315 20.9339 18.2384 20.9295 18.246 20.9267C18.7245 20.7466 19.1869 20.5267 19.6286 20.2692C19.6366 20.2644 19.6433 20.2577 19.6481 20.2497C19.6529 20.2417 19.6556 20.2327 19.6561 20.2234C19.6565 20.214 19.6546 20.2047 19.6506 20.1963C19.6466 20.1879 19.6405 20.1806 19.633 20.1751C19.54 20.1054 19.447 20.0323 19.3585 19.9593C19.3503 19.9528 19.3406 19.9486 19.3302 19.9473C19.3199 19.9459 19.3094 19.9474 19.2998 19.9515C16.4362 21.2754 13.2981 21.2754 10.3991 19.9515C10.3899 19.9476 10.3797 19.9462 10.3698 19.9476C10.3598 19.9489 10.3505 19.953 10.3426 19.9593C10.2541 20.0323 10.1611 20.1054 10.0681 20.1751C10.061 20.1807 10.0553 20.1879 10.0515 20.1961C10.0451 20.2088 10.0438 20.2235 10.048 20.2371C10.0521 20.2507 10.0613 20.2622 10.0737 20.2692C10.5163 20.5243 10.9782 20.7445 11.4551 20.9278C11.4625 20.9304 11.4693 20.9346 11.475 20.94C11.4837 20.9482 11.4894 20.959 11.4914 20.9708C11.4934 20.9826 11.4915 20.9947 11.4861 21.0053C11.2248 21.5211 10.9215 22.0115 10.5806 22.4764C10.5739 22.486 10.5642 22.4933 10.5531 22.4971C10.5419 22.5008 10.5299 22.501 10.5186 22.4974C8.92864 22.0078 7.43334 21.2517 6.09649 20.2615C6.08431 20.2515 6.07435 20.236 6.07324 20.2205C5.76441 16.9163 6.39425 13.5701 8.69 10.1398C8.69521 10.1307 8.70342 10.1236 8.71325 10.1199C9.86112 9.59186 11.0732 9.21551 12.3185 9.00077C12.3297 8.99903 12.3413 9.00074 12.3516 9.00568C12.3618 9.01062 12.3704 9.01856 12.376 9.02844C12.5452 9.32699 12.6975 9.63483 12.8321 9.95051C14.1741 9.74684 15.5392 9.74684 16.8812 9.95051C17.0019 9.66713 17.1745 9.30517 17.3306 9.02844C17.3362 9.01845 17.3447 9.01042 17.355 9.00547C17.3653 9.00051 17.3769 8.99887 17.3882 9.00077ZM10.3271 16.4238C10.3271 17.4067 11.0455 18.2081 11.9189 18.2081C12.8055 18.2081 13.5106 17.4067 13.5106 16.4238C13.5239 15.4464 12.8122 14.6383 11.9189 14.6383C11.0322 14.6383 10.3271 15.4397 10.3271 16.4238ZM16.2115 16.4238C16.2115 17.4067 16.931 18.2081 17.8033 18.2081C18.6966 18.2081 19.395 17.4067 19.395 16.4238C19.4094 15.4464 18.6966 14.6383 17.8033 14.6383C16.9166 14.6383 16.2115 15.4397 16.2115 16.4238Z" fill="#F2BF8E"/>
</svg>
