<svg xmlns="http://www.w3.org/2000/svg" xmlns:xlink="http://www.w3.org/1999/xlink" width="760.006" height="623.001" viewBox="0 0 760.006 623.001">
  <defs>
    <linearGradient id="linear-gradient" x1="0.5" y1="1" x2="0.5" gradientUnits="objectBoundingBox">
      <stop offset="0.184" stop-color="#f2bf8e" stop-opacity="0"/>
      <stop offset="0.628" stop-color="#ba8b65" stop-opacity="0.502"/>
      <stop offset="1" stop-color="#84664f" stop-opacity="0.502"/>
    </linearGradient>
    <linearGradient id="linear-gradient-2" x1="0.5" y1="1" x2="0.5" gradientUnits="objectBoundingBox">
      <stop offset="0.184" stop-color="#f2bf8e" stop-opacity="0"/>
      <stop offset="0.628" stop-color="#ba8b65" stop-opacity="0.251"/>
      <stop offset="1" stop-color="#84664f" stop-opacity="0.251"/>
    </linearGradient>
  </defs>
  <g id="homeBG_1" transform="translate(-823.001 -247)">
    <path id="Vector" d="M2.01,248.833c23.268-43.35,57.732-67.863,57.732-67.863,29.7-21.129,41.186-16.914,59.794-34.686,28.681-27.387,14.1-49.51,36.083-92.747C167.856,29.475,180.412.06,197.887,0c24.072-.083,48.69,55.1,57.732,81.436,10.3,30,10.474,51.908,36.082,66.356,5.949,3.355,19.969,11.273,32.99,8.294,29.495-6.741,21.608-62.042,42.268-64.847,12.237-1.659,26.258,16.219,28.866,19.605,56.134,72.991,49.237,220.828,51.546,220.934,1.577.075,13.258-68.286,17.526-92.747,5.856-33.51,8.526-46.019,15.464-46.751,12.691-1.334,31.453,37.627,40.206,60.323,20.021,51.924,15.9,91.858,26.8,92.747,9.557.777,10.423-30.116,44.33-46,18.217-8.528,43.732-11.68,64.949-6.032,29.618,7.887,41.34,30.4,57.731,63.339,14.712,29.558,34.8,69.967,26.8,94.255C710.309,544.6,184.876,630.287,32.938,467.505-26.165,404.188-27.784,304.323,2.01,248.833Z" transform="translate(840.001 247)" opacity="0.15" fill="url(#linear-gradient)"/>
    <path id="Vector-1" d="M10.51,248.833c22.656-43.35,56.213-67.863,56.213-67.863,28.919-21.129,40.1-16.914,58.22-34.686,27.926-27.387,13.732-49.51,35.133-92.747C171.991,29.475,184.217.06,201.232,0c23.438-.083,47.409,55.1,56.212,81.436,10.028,30,10.2,51.908,35.133,66.356,5.792,3.355,19.444,11.273,32.122,8.294,28.719-6.741,21.04-62.042,41.156-64.847,11.915-1.659,25.566,16.219,28.106,19.605,54.657,72.991,47.941,220.828,50.19,220.934,1.536.075,12.909-68.286,17.065-92.747,5.7-33.51,8.3-46.019,15.056-46.751,12.357-1.334,30.626,37.627,39.149,60.323,19.493,51.924,15.478,91.858,26.1,92.747,9.306.777,10.149-30.116,43.164-46,17.737-8.528,42.581-11.68,63.239-6.032,28.839,7.887,40.252,30.4,56.213,63.339,14.324,29.558,33.888,69.967,26.1,94.255C700.17,544.6,188.564,630.287,40.624,467.505-16.924,404.188-18.5,304.323,10.51,248.833Z" transform="translate(838.001 311)" opacity="0.15" fill="url(#linear-gradient-2)"/>
  </g>
</svg>
