<svg xmlns="http://www.w3.org/2000/svg" xmlns:xlink="http://www.w3.org/1999/xlink" width="409" height="337" viewBox="0 0 409 337">
  <defs>
    <clipPath id="clip-path">
      <rect id="Rectangle_1" data-name="Rectangle 1" width="409" height="272" fill="#fff"/>
    </clipPath>
    <linearGradient id="linear-gradient" x1="0.5" y1="1" x2="0.5" gradientUnits="objectBoundingBox">
      <stop offset="0.184" stop-color="#f2bf8e" stop-opacity="0"/>
      <stop offset="0.628" stop-color="#ba8b65" stop-opacity="0.502"/>
      <stop offset="1" stop-color="#84664f" stop-opacity="0.502"/>
    </linearGradient>
  </defs>
  <g id="homeBG_2" transform="translate(-158 -46)">
    <g id="Frame-1" transform="translate(158 46)" clip-path="url(#clip-path)">
      <path id="Path_1" data-name="Path 1" d="M18.809,137.421C28.318,116.259,51.1,78.087,71.226,79.1c25.45,1.277,31.982,64.453,41.934,63.964,5.823-.288,5.845-22.039,17.469-59.267,3.365-10.77,5.081-31.321,21.465-39.538,16.052-8.05,37.262,1.532,47.414,8.649,14,9.815,15.166,22.284,20.435,33.908,4.594,10.137,15.122,34.241,27.144,10.048,8.381-16.865,16.074-34.93,24.919-52.151,5.657-11.036,12.4-38.649,35.093-43.69,13.982-3.109,29.912,1.71,36.687,3.764,12.885,3.9,44.258,16.066,59.4,71.492,13.085,47.9-5.18,57.7,3.5,126.052,2.236,17.642,3.841,20,0,25.4-35.392,49.83-324.7,65.7-391.377,4.708C-12.476,207.014,3.045,172.484,18.809,137.421Z" opacity="0.15" fill="url(#linear-gradient)"/>
    </g>
    <g id="Frame" transform="translate(158 111)" clip-path="url(#clip-path)">
      <path id="Path_2" data-name="Path 2" d="M18.809,137.421C28.318,116.259,51.1,78.087,71.226,79.1c25.45,1.277,31.982,64.453,41.934,63.964,5.823-.288,5.845-22.039,17.469-59.267,3.365-10.77,5.081-31.321,21.465-39.538,16.052-8.05,37.262,1.532,47.414,8.649,14,9.815,15.166,22.284,20.435,33.908,4.594,10.137,15.122,34.241,27.144,10.048,8.381-16.865,16.074-34.93,24.919-52.151,5.657-11.036,12.4-38.649,35.093-43.69,13.982-3.109,29.912,1.71,36.687,3.764,12.885,3.9,44.258,16.066,59.4,71.492,13.085,47.9-5.18,57.7,3.5,126.052,2.236,17.642,3.841,20,0,25.4-35.392,49.83-324.7,65.7-391.377,4.708C-12.476,207.014,3.045,172.484,18.809,137.421Z" opacity="0.15" fill="url(#linear-gradient)"/>
    </g>
  </g>
</svg>
