<svg width="33" height="24" viewBox="0 0 33 24" fill="none" xmlns="http://www.w3.org/2000/svg">
<path fill-rule="evenodd" clip-rule="evenodd" d="M16.398 0.0835248C16.3687 0.139158 16.1742 0.511442 15.9659 0.910817C15.7575 1.31019 15.5437 1.69979 15.4905 1.7766C15.3787 1.9383 14.8578 2.8806 14.4047 3.74124C14.2321 4.06907 13.99 4.50123 13.8669 4.70153C13.7437 4.90183 13.5776 5.19391 13.4979 5.35053L13.3528 5.6354L13.4643 5.79124C13.7155 6.14225 14.0077 7.12806 14.0658 7.82029C14.1296 8.5805 13.8892 9.45321 13.4194 10.1667C12.4872 11.5822 10.4213 12.5505 8.60383 12.4236C7.73134 12.3627 6.6888 11.9928 5.72337 11.4016C5.14822 11.0494 4.08856 10.0709 3.40571 9.2614C3.18549 9.00027 2.94478 8.72378 2.87086 8.64697C2.68712 8.456 1.88815 7.23888 1.47755 6.52442C1.13374 5.92614 0.212315 4.08476 0.142891 3.85726C0.0381092 3.51402 -0.000167816 3.8209 5.52726e-07 5.00232C0.000281168 6.80432 0.143004 8.17068 0.509263 9.87783L0.683469 10.6898L1.0403 10.982C1.8002 11.6044 2.65956 12.7924 3.37131 14.2047C3.94943 15.3518 4.4849 17.2795 4.6902 18.9525C4.74296 19.3826 4.79251 19.7423 4.80026 19.7518C4.80795 19.7613 4.98749 19.6899 5.19918 19.5931C5.61236 19.4043 6.93237 18.9697 7.80093 18.7365C9.21394 18.3572 11.2178 18.0134 12.403 17.9471C12.6654 17.9324 13.2968 17.8904 13.8061 17.8538C14.9947 17.7682 17.9989 17.7679 19.1939 17.8532C19.7032 17.8896 20.322 17.9302 20.5689 17.9435C21.6946 18.0042 23.6002 18.3241 25.0868 18.7021C25.84 18.8936 27.4053 19.4116 27.8583 19.6194C28.1016 19.7309 28.3144 19.8086 28.3311 19.7919C28.3478 19.7752 28.3943 19.4413 28.4344 19.0498C28.5815 17.6127 28.9128 16.0843 29.3636 14.7633C29.519 14.3077 30.1825 13.0182 30.5374 12.4815C30.8788 11.9655 31.6485 11.1427 32.0404 10.8747L32.3168 10.6857L32.4909 9.87582C32.8567 8.17381 32.9997 6.80465 33 5.00232C33.0002 3.82129 32.9618 3.51352 32.8573 3.85726C32.777 4.12124 31.6973 6.24385 31.3585 6.8037C30.8733 7.60547 30.2911 8.47829 30.129 8.64697C30.0552 8.72378 29.8145 9.00027 29.5943 9.2614C28.8999 10.0846 27.8755 11.0241 27.2482 11.4133C25.1327 12.7256 23.1096 12.7662 21.0294 11.5382C19.6727 10.7373 18.8169 9.2185 18.9342 7.82029C18.9923 7.12806 19.2845 6.14225 19.5357 5.79124L19.6472 5.6354L19.5021 5.35053C19.4224 5.19391 19.2563 4.90183 19.1331 4.70153C19.01 4.50123 18.768 4.06907 18.5955 3.74124C18.1429 2.88105 17.9203 2.47732 17.6198 1.97209C17.4736 1.72633 17.1772 1.18686 16.9613 0.773241C16.7454 0.359678 16.5423 0.0125289 16.5101 0.00186024C16.4778 -0.00886425 16.4274 0.0278915 16.398 0.0835248ZM7.76181 3.99377C7.67342 4.17218 7.31687 4.86698 6.96947 5.53788L6.33786 6.75762L6.5751 6.87844C7.07672 7.13387 7.36677 7.74047 7.36727 8.53526C7.36766 9.12053 7.19385 9.67725 6.78763 10.392C6.63498 10.6606 6.5101 10.9144 6.5101 10.9561C6.5101 11.0913 7.35863 11.3818 8.08155 11.494C9.23903 11.6737 10.7209 11.4091 11.6753 10.8522C11.9212 10.7087 12.1223 10.5749 12.1223 10.5548C12.1222 10.5347 12.0052 10.4446 11.8623 10.3547C11.2565 9.97379 10.5549 9.19688 10.1619 8.47175C9.70294 7.62496 9.67426 6.90972 10.078 6.38327L10.2701 6.13286L9.13992 4.91826C8.51835 4.25021 7.99018 3.696 7.96616 3.68656C7.94219 3.67718 7.85021 3.81542 7.76181 3.99377ZM23.8665 4.90703L22.7304 6.13342L22.9222 6.38355C23.3257 6.90966 23.2969 7.62518 22.8381 8.47175C22.4451 9.19688 21.7435 9.97379 21.1377 10.3547C20.9948 10.4446 20.8778 10.5347 20.8777 10.5548C20.8777 10.5749 21.0855 10.7127 21.3397 10.8609C22.2536 11.3942 23.7329 11.6634 24.8534 11.5004C25.6216 11.3885 26.4899 11.0995 26.4899 10.9556C26.4899 10.9143 26.365 10.6606 26.2124 10.392C25.8062 9.67725 25.6323 9.12053 25.6327 8.53526C25.6332 7.74047 25.9233 7.13387 26.4249 6.87844L26.6621 6.75762L26.0305 5.53788C25.6831 4.86698 25.3273 4.17358 25.2397 3.9969C25.1521 3.82023 25.063 3.67684 25.0415 3.67818C25.0201 3.67952 24.4914 4.2325 23.8665 4.90703ZM14.6793 18.7612C12.971 18.8298 11.221 19.0193 9.76524 19.2934C9.34853 19.3718 8.91918 19.4469 8.81115 19.4602C8.53491 19.4942 7.2667 19.8481 6.80879 20.019C6.20401 20.2448 5.3378 20.7174 5.03867 20.985C4.25396 21.6869 4.40044 22.47 5.44377 23.151C5.9482 23.4802 7.41155 24.0786 7.49916 23.9914C7.51448 23.9762 7.39135 23.8865 7.22562 23.7921C6.49355 23.3753 6.18543 22.8506 6.41413 22.4105C6.60433 22.0444 7.37951 21.5123 8.16573 21.2083C8.72556 20.9918 9.87692 20.6664 10.1959 20.6346C10.3449 20.6197 10.7572 20.5564 11.1122 20.4939C12.7904 20.1984 14.3403 20.0791 16.5 20.0791C18.6597 20.0791 20.2096 20.1984 21.8878 20.4939C22.2428 20.5564 22.6551 20.6197 22.8041 20.6346C23.1231 20.6664 24.2744 20.9918 24.8343 21.2083C25.6126 21.5093 26.3957 22.0443 26.5816 22.4022C26.8147 22.8509 26.512 23.3721 25.7744 23.7921C25.6087 23.8865 25.4855 23.9762 25.5008 23.9914C25.5409 24.0313 26.3979 23.7419 26.8266 23.5437C27.9144 23.0409 28.4542 22.5001 28.4542 21.9129C28.4542 21.5781 28.3001 21.2881 27.9613 20.985C27.6656 20.7205 26.7972 20.2451 26.2093 20.0259C25.7136 19.8411 24.4928 19.4964 24.2169 19.4633C24.0934 19.4485 23.6515 19.3725 23.2348 19.2943C21.6813 19.003 20.1163 18.8386 18.1276 18.758C16.6264 18.6971 16.2673 18.6974 14.6793 18.7612Z" fill="#030303"/>
</svg>
