<svg width="72" height="52" viewBox="0 0 72 52" fill="none" xmlns="http://www.w3.org/2000/svg">
<path fill-rule="evenodd" clip-rule="evenodd" d="M35.7775 0.18097C35.7135 0.301509 35.2892 1.10812 34.8346 1.97344C34.3801 2.83875 33.9135 3.68289 33.7975 3.84929C33.5534 4.19965 32.4171 6.24131 31.4284 8.10603C31.0518 8.81631 30.5237 9.75267 30.255 10.1867C29.9862 10.6206 29.6239 11.2535 29.4499 11.5928L29.1335 12.21L29.3767 12.5477C29.9246 13.3082 30.5622 15.4441 30.689 16.944C30.8282 18.5911 30.3036 20.4819 29.2786 22.0278C27.2448 25.0949 22.7374 27.1927 18.772 26.9177C16.8684 26.7858 14.5937 25.9844 12.4874 24.7035C11.2325 23.9404 8.9205 21.8202 7.43065 20.0664C6.95015 19.5006 6.42497 18.9015 6.2637 18.7351C5.8628 18.3213 4.1196 15.6842 3.22375 14.1362C2.47362 12.84 0.463233 8.85032 0.311762 8.35739C0.0831474 7.61371 -0.000366145 8.27861 1.20595e-06 10.8384C0.000613457 14.7427 0.312009 17.7031 1.11112 21.402L1.4912 23.1612L2.26974 23.7943C3.92772 25.1428 5.80267 27.7168 7.35559 30.7769C8.61695 33.2623 9.78524 37.4389 10.2332 41.0638C10.3483 41.9957 10.4564 42.775 10.4733 42.7955C10.4901 42.8161 10.8818 42.6615 11.3437 42.4517C12.2452 42.0427 15.1252 41.101 17.0202 40.5957C20.1031 39.7738 24.4751 39.0291 27.0611 38.8854C27.6336 38.8536 29.0112 38.7626 30.1224 38.6832C32.7156 38.4978 39.2703 38.497 41.8776 38.682C42.9889 38.7608 44.3389 38.8487 44.8776 38.8777C47.3336 39.0091 51.4914 39.7023 54.7349 40.5212C56.3782 40.936 59.7933 42.0585 60.7817 42.5086C61.3125 42.7503 61.7768 42.9186 61.8133 42.8824C61.8497 42.8464 61.9512 42.1229 62.0387 41.2746C62.3596 38.1608 63.0824 34.8493 64.066 31.9871C64.405 31 65.8526 28.206 66.6271 27.0433C67.372 25.9253 69.0513 24.1424 69.9062 23.5619L70.5093 23.1524L70.8891 21.3976C71.6873 17.7099 71.9994 14.7434 72 10.8384C72.0004 8.27946 71.9166 7.61262 71.6886 8.35739C71.5135 8.92935 69.1577 13.5283 68.4185 14.7414C67.3599 16.4785 66.0896 18.3696 65.7359 18.7351C65.5749 18.9015 65.0499 19.5006 64.5694 20.0664C63.0543 21.85 60.8193 23.8856 59.4507 24.7288C54.8349 27.5721 50.4208 27.6602 45.8823 24.9995C42.9224 23.2641 41.055 19.9734 41.311 16.944C41.4378 15.4441 42.0754 13.3082 42.6233 12.5477L42.8665 12.21L42.5501 11.5928C42.3761 11.2535 42.0138 10.6206 41.745 10.1867C41.4763 9.75267 40.9485 8.81631 40.5721 8.10603C39.5846 6.24227 39.0987 5.36752 38.4431 4.27287C38.1242 3.74037 37.4776 2.57153 37.0065 1.67536C36.5354 0.779303 36.0923 0.0271459 36.022 0.00403051C35.9516 -0.0192059 35.8417 0.0604316 35.7775 0.18097ZM16.9349 8.65317C16.742 9.03972 15.9641 10.5451 15.2061 11.9987L13.8281 14.6415L14.3457 14.9033C15.4401 15.4567 16.0729 16.771 16.074 18.4931C16.0749 19.7611 15.6957 20.9674 14.8094 22.5161C14.4763 23.098 14.2039 23.6479 14.2039 23.7382C14.2039 24.0312 16.0552 24.6605 17.6325 24.9038C20.1579 25.2931 23.3911 24.7197 25.4734 23.5131C26.0099 23.2022 26.4488 22.9122 26.4486 22.8686C26.4485 22.8251 26.1932 22.63 25.8813 22.4353C24.5596 21.6099 23.0289 19.9266 22.1715 18.3555C21.1701 16.5207 21.1075 14.9711 21.9884 13.8304L22.4074 13.2879L19.9416 10.6562C18.5855 9.20879 17.4331 8.008 17.3807 7.98754C17.3284 7.96721 17.1277 8.26674 16.9349 8.65317ZM52.0724 10.6319L49.5937 13.2891L50.0121 13.831C50.8925 14.9709 50.8297 16.5212 49.8286 18.3555C48.9712 19.9266 47.4404 21.6099 46.1187 22.4353C45.8068 22.63 45.5515 22.8251 45.5514 22.8686C45.5512 22.9122 46.0048 23.2108 46.5593 23.532C48.5534 24.6875 51.7809 25.2707 54.2256 24.9174C55.9016 24.6751 57.7961 24.049 57.7961 23.7372C57.7961 23.6475 57.5237 23.098 57.1906 22.5161C56.3043 20.9674 55.9251 19.7611 55.926 18.4931C55.9271 16.771 56.5599 15.4567 57.6544 14.9033L58.1719 14.6415L56.7939 11.9987C56.0359 10.5451 55.2595 9.04275 55.0684 8.65995C54.8773 8.27716 54.6828 7.96649 54.6361 7.9694C54.5894 7.9723 53.4358 9.17043 52.0724 10.6319ZM32.0276 40.6493C28.3003 40.7979 24.4822 41.2085 21.306 41.8023C20.3968 41.9722 19.46 42.1349 19.2243 42.1637C18.6216 42.2374 15.8546 43.0043 14.8555 43.3745C13.536 43.8637 11.6461 44.8878 10.9935 45.4675C9.28136 46.9884 9.60096 48.685 11.8773 50.1605C12.9779 50.8738 16.1707 52.1702 16.3618 51.9814C16.3952 51.9484 16.1266 51.754 15.765 51.5495C14.1677 50.6464 13.4955 49.5096 13.9945 48.556C14.4095 47.7628 16.1007 46.6101 17.8161 45.9513C19.0376 45.4823 21.5497 44.7772 22.2455 44.7083C22.5706 44.676 23.4703 44.5389 24.2448 44.4035C27.9064 43.7631 31.2879 43.5046 36 43.5046C40.7121 43.5046 44.0936 43.7631 47.7552 44.4035C48.5297 44.5389 49.4294 44.676 49.7545 44.7083C50.4504 44.7772 52.9624 45.4823 54.1839 45.9513C55.8821 46.6035 57.5906 47.7627 57.9962 48.5381C58.5049 49.5103 57.8444 50.6395 56.235 51.5495C55.8734 51.754 55.6048 51.9484 55.6382 51.9814C55.7256 52.0677 57.5953 51.4407 58.5308 51.0113C60.9042 49.922 62.0819 48.7501 62.0819 47.478C62.0819 46.7526 61.7458 46.1242 61.0065 45.4675C60.3612 44.8943 58.4666 43.8644 57.1839 43.3895C56.1023 42.9891 53.4389 42.2422 52.8369 42.1706C52.5675 42.1385 51.6032 41.9737 50.694 41.8044C47.3047 41.1731 43.8901 40.8169 39.5511 40.6423C36.2758 40.5104 35.4922 40.5111 32.0276 40.6493Z" fill="#F2BF8E"/>
</svg>
