<svg width="23" height="24" viewBox="0 0 23 24" fill="none" xmlns="http://www.w3.org/2000/svg">
<path d="M11.1364 0.86377C4.98651 0.86377 0 5.85028 0 12.0001C0 18.15 4.98651 23.1365 11.1364 23.1365C17.2862 23.1365 22.2727 18.15 22.2727 12.0001C22.2727 5.85028 17.2862 0.86377 11.1364 0.86377ZM16.4883 9.2583C16.4957 9.37513 16.4957 9.49694 16.4957 9.61626C16.4957 13.2654 13.7166 17.4689 8.63814 17.4689C7.07209 17.4689 5.62038 17.014 4.39737 16.231C4.62109 16.2558 4.83487 16.2658 5.06357 16.2658C6.35618 16.2658 7.54439 15.8283 8.49148 15.0875C7.27841 15.0626 6.25923 14.2672 5.91122 13.1734C6.33629 13.2356 6.71911 13.2356 7.15661 13.1237C6.53199 12.9968 5.97057 12.6576 5.56773 12.1637C5.16488 11.6697 4.94546 11.0516 4.94673 10.4142V10.3794C5.31214 10.5857 5.74219 10.7125 6.19212 10.7299C5.81388 10.4778 5.5037 10.1363 5.28905 9.73565C5.07441 9.33499 4.96195 8.88755 4.96165 8.43302C4.96165 7.91846 5.09588 7.44864 5.337 7.04097C6.0303 7.89444 6.89542 8.59246 7.87616 9.08968C8.85689 9.5869 9.93127 9.87218 11.0295 9.92698C10.6392 8.0502 12.0412 6.53138 13.7266 6.53138C14.522 6.53138 15.2379 6.86448 15.7425 7.40141C16.3665 7.28458 16.9631 7.05091 17.495 6.7377C17.2887 7.37655 16.8562 7.91597 16.282 8.25653C16.8388 8.19687 17.3757 8.04275 17.8729 7.82648C17.4975 8.37833 17.0277 8.86803 16.4883 9.2583Z" fill="#030303"/>
</svg>
