<svg width="23" height="23" viewBox="0 0 23 23" fill="none" xmlns="http://www.w3.org/2000/svg">
<path fill-rule="evenodd" clip-rule="evenodd" d="M11.1364 23.0003C17.2868 23.0003 22.2727 18.0143 22.2727 11.8639C22.2727 5.71346 17.2868 0.727539 11.1364 0.727539C4.98592 0.727539 0 5.71346 0 11.8639C0 18.0143 4.98592 23.0003 11.1364 23.0003ZM12.909 7.40975C13.8333 7.57004 14.733 7.84931 15.5856 8.24059C15.5892 8.2419 15.5926 8.24397 15.5954 8.24666C15.5983 8.24935 15.6005 8.2526 15.602 8.25621C17.087 10.4397 17.8209 12.9035 17.5464 15.7396C17.546 15.7456 17.5442 15.7515 17.5412 15.7567C17.5382 15.762 17.5341 15.7665 17.5291 15.77C16.5355 16.5062 15.4235 17.0676 14.2411 17.43C14.2328 17.4326 14.2238 17.4325 14.2155 17.4297C14.2073 17.4269 14.2001 17.4215 14.1951 17.4144C13.9469 17.0692 13.7209 16.7044 13.5237 16.3222C13.521 16.3171 13.5194 16.3114 13.519 16.3056C13.5185 16.2998 13.5193 16.294 13.5212 16.2885C13.5233 16.2829 13.5265 16.2777 13.5308 16.2734C13.535 16.2692 13.5402 16.2659 13.5459 16.2639C13.9011 16.1301 14.2444 15.9669 14.5723 15.7757C14.5782 15.7722 14.5832 15.7672 14.5868 15.7613C14.5904 15.7553 14.5924 15.7486 14.5927 15.7417C14.593 15.7347 14.5916 15.7279 14.5887 15.7216C14.5857 15.7154 14.5812 15.7099 14.5756 15.7059C14.5065 15.6541 14.4375 15.5998 14.3718 15.5456C14.3657 15.5408 14.3585 15.5377 14.3508 15.5367C14.3431 15.5357 14.3353 15.5368 14.3282 15.5399C12.2022 16.5227 9.87239 16.5227 7.72009 15.5399C7.71324 15.5369 7.70572 15.5359 7.69834 15.5369C7.69095 15.5379 7.68398 15.5409 7.67818 15.5456C7.61243 15.5998 7.5434 15.6541 7.47437 15.7059C7.46907 15.71 7.46484 15.7154 7.46204 15.7215C7.45729 15.7309 7.45635 15.7418 7.45941 15.7519C7.46247 15.762 7.4693 15.7705 7.47848 15.7757C7.80711 15.9651 8.15002 16.1286 8.50409 16.2647C8.5096 16.2666 8.51463 16.2697 8.51888 16.2737C8.5253 16.2798 8.52956 16.2879 8.53104 16.2966C8.53253 16.3053 8.53114 16.3143 8.5271 16.3222C8.33315 16.7052 8.10798 17.0692 7.85486 17.4144C7.84985 17.4215 7.84269 17.4269 7.83441 17.4297C7.82613 17.4325 7.81718 17.4326 7.80884 17.43C6.6284 17.0665 5.51825 16.5052 4.52574 15.77C4.5167 15.7626 4.5093 15.7511 4.50848 15.7396C4.2792 13.2865 4.7468 10.8022 6.45122 8.25539C6.45509 8.24861 6.46119 8.24338 6.46848 8.24059C7.32069 7.84859 8.22057 7.56918 9.1451 7.40975C9.15346 7.40846 9.16202 7.40973 9.16965 7.4134C9.17727 7.41707 9.18361 7.42296 9.18783 7.4303C9.31345 7.65195 9.42649 7.8805 9.52641 8.11486C10.5228 7.96365 11.5362 7.96365 12.5326 8.11486C12.6221 7.90448 12.7503 7.63575 12.8662 7.4303C12.8703 7.42288 12.8767 7.41692 12.8843 7.41324C12.892 7.40956 12.9006 7.40834 12.909 7.40975ZM7.66667 12.9208C7.66667 13.6505 8.20002 14.2455 8.84842 14.2455C9.50669 14.2455 10.0302 13.6505 10.0302 12.9208C10.04 12.1951 9.51162 11.5952 8.84842 11.5952C8.19016 11.5952 7.66667 12.1902 7.66667 12.9208ZM12.0354 12.9208C12.0354 13.6505 12.5696 14.2455 13.2171 14.2455C13.8803 14.2455 14.3989 13.6505 14.3989 12.9208C14.4096 12.1951 13.8803 11.5952 13.2171 11.5952C12.5589 11.5952 12.0354 12.1902 12.0354 12.9208Z" fill="#030303"/>
</svg>
