<svg width="23" height="23" viewBox="0 0 23 23" fill="none" xmlns="http://www.w3.org/2000/svg">
<path d="M11.1364 0C4.98724 0 0 4.98724 0 11.1364C0 17.2855 4.98724 22.2727 11.1364 22.2727C17.2855 22.2727 22.2727 17.2855 22.2727 11.1364C22.2727 4.98724 17.2883 0 11.1364 0ZM5.49394 11.5104L5.54127 11.4352L8.43951 6.90269C8.44921 6.88779 8.46274 6.87577 8.47868 6.86789C8.49462 6.86 8.51239 6.85655 8.53012 6.85787C8.54785 6.8592 8.5649 6.86527 8.57949 6.87543C8.59408 6.8856 8.60567 6.8995 8.61305 6.91568C9.09562 8.00055 9.51509 9.34991 9.31835 10.1898C9.23669 10.535 9.00746 11.0027 8.74854 11.4352C8.71533 11.4985 8.67909 11.5601 8.63996 11.6199C8.63059 11.6332 8.61805 11.644 8.60347 11.6513C8.58889 11.6586 8.57273 11.6621 8.55644 11.6616H5.58025C5.56248 11.6619 5.54498 11.6574 5.52958 11.6485C5.51419 11.6396 5.50149 11.6267 5.49283 11.6112C5.48417 11.5957 5.47988 11.5781 5.4804 11.5604C5.48092 11.5426 5.48624 11.5253 5.4958 11.5104H5.49394ZM18.4066 13.0695C18.4068 13.0893 18.4012 13.1087 18.3905 13.1254C18.3797 13.142 18.3644 13.1552 18.3462 13.1632C18.1207 13.2588 17.3532 13.6133 17.034 14.0559C16.2192 15.19 15.5974 16.8122 14.2054 16.8122H8.40146C7.91143 16.8115 7.42634 16.7142 6.97392 16.5259C6.52151 16.3376 6.11063 16.062 5.76477 15.7149C5.41891 15.3677 5.14485 14.9558 4.95825 14.5027C4.77165 14.0496 4.67617 13.5641 4.67727 13.0741V13.0073C4.67727 12.9534 4.72182 12.9089 4.7775 12.9089H8.01169C8.07665 12.9089 8.12305 12.9674 8.11841 13.0314C8.09428 13.2411 8.13419 13.4574 8.23441 13.6532C8.42559 14.043 8.82464 14.2861 9.25432 14.2861H10.8561V13.036H9.27102C9.25245 13.0358 9.23428 13.0306 9.21848 13.0208C9.20267 13.0111 9.18983 12.9972 9.18133 12.9807C9.17283 12.9641 9.169 12.9456 9.17025 12.9271C9.1715 12.9086 9.17779 12.8907 9.18843 12.8755L9.24689 12.792C9.39538 12.5776 9.60975 12.2481 9.8232 11.8714C9.96797 11.6171 10.109 11.3461 10.2223 11.0733C10.2445 11.025 10.2622 10.974 10.2826 10.9248C10.3132 10.8375 10.3448 10.7559 10.367 10.6751C10.3889 10.6067 10.409 10.5377 10.4273 10.4682C10.4802 10.2362 10.5025 9.99117 10.5025 9.73782C10.5025 9.6376 10.4988 9.53273 10.4895 9.43436C10.4849 9.32578 10.471 9.21627 10.458 9.10769C10.4476 9.01054 10.4327 8.91392 10.4134 8.81814C10.3885 8.6723 10.3581 8.52743 10.3225 8.38383L10.3095 8.32814C10.2816 8.22792 10.2575 8.13326 10.226 8.03396C10.1376 7.72901 10.036 7.42805 9.92157 7.13191C9.88169 7.02052 9.83773 6.91063 9.78979 6.80246C9.72297 6.63727 9.6543 6.48786 9.59212 6.34773C9.56118 6.28769 9.53209 6.22672 9.50489 6.16491C9.4747 6.09822 9.44283 6.0323 9.4093 5.96723C9.38703 5.91805 9.36011 5.87072 9.34248 5.82617L9.14667 5.4661C9.11975 5.41691 9.1643 5.35659 9.21812 5.37237L10.4431 5.70367H10.4524L10.613 5.75008L10.7911 5.80019L10.8561 5.81782V5.09117C10.8561 4.73945 11.1364 4.45455 11.4862 4.45455C11.5688 4.45432 11.6507 4.47082 11.7267 4.50303C11.8028 4.53525 11.8716 4.58252 11.9289 4.64201C12.0474 4.76152 12.1141 4.92288 12.1145 5.09117V6.1714L12.2454 6.20759C12.2546 6.21223 12.2658 6.21688 12.2741 6.22337C12.3057 6.24564 12.3521 6.28091 12.4105 6.32545C12.457 6.36072 12.5061 6.40527 12.5637 6.45259C12.7469 6.6019 12.9246 6.75791 13.0964 6.92032C13.295 7.105 13.5177 7.32123 13.7311 7.56159C13.7915 7.63027 13.849 7.69708 13.9093 7.77133C13.9669 7.84464 14.0318 7.9161 14.0856 7.98663C14.159 8.08314 14.2341 8.18337 14.3037 8.28731C14.3344 8.3365 14.3724 8.38754 14.4012 8.43672C14.4903 8.5685 14.5664 8.704 14.6397 8.84042C14.6712 8.90259 14.7019 8.97127 14.7288 9.03809C14.8114 9.22091 14.8763 9.40559 14.9162 9.59305C14.9294 9.63284 14.9385 9.67389 14.9431 9.71555V9.72483C14.9561 9.77773 14.9608 9.83619 14.9654 9.89559C14.9915 10.1699 14.958 10.4466 14.867 10.7067C14.8383 10.7846 14.8114 10.8645 14.7761 10.9424C14.7065 11.1002 14.6267 11.2607 14.5311 11.4083C14.4995 11.464 14.4615 11.5215 14.4262 11.5772C14.3863 11.6356 14.3436 11.6913 14.3084 11.7442C14.2573 11.8145 14.2038 11.8829 14.1478 11.9493C14.0986 12.0161 14.0495 12.083 13.9938 12.1433C13.9186 12.2342 13.8453 12.3196 13.7664 12.4013C13.7219 12.4551 13.6736 12.5108 13.6216 12.559C13.5734 12.6147 13.5214 12.6639 13.4769 12.7084C13.3989 12.7864 13.3377 12.8449 13.2838 12.8959L13.1567 13.0091C13.139 13.0269 13.1149 13.0369 13.0899 13.037H12.1145V14.2861H13.3414C13.6151 14.2861 13.8759 14.1896 14.0875 14.0095C14.159 13.9474 14.4726 13.6755 14.8448 13.2653C14.8569 13.2513 14.8731 13.2416 14.8912 13.2374L18.2785 12.2565C18.2934 12.2522 18.309 12.2514 18.3243 12.2542C18.3395 12.2569 18.3539 12.2632 18.3663 12.2725C18.3787 12.2817 18.3888 12.2937 18.3958 12.3075C18.4028 12.3214 18.4064 12.3366 18.4066 12.3521V13.0695Z" fill="#030303"/>
</svg>
